<svg xmlns="http://www.w3.org/2000/svg" xmlns:xlink="http://www.w3.org/1999/xlink" version="1.1" x="0px" y="0px" viewBox="0 0 100 125" style="enable-background:new 0 0 100 100;" xml:space="preserve"><g><polygon points="92.6,32.8 94.2,31.3 93.9,27.6 72.4,6.1 68.7,5.8 67.2,7.4 67.5,11.1 88.9,32.5  "/><polygon points="90,42.4 91.5,40.9 91.2,37.1 62.9,8.8 59.1,8.5 57.6,10 57.9,13.8 86.2,42.1  "/></g><rect x="83.8" y="10.1" transform="matrix(0.7071 -0.7071 0.7071 0.7071 16.0981 65.2641)" width="6.1" height="6.1"/><g><polygon points="7.4,67.2 5.8,68.7 6.1,72.4 27.6,93.9 31.3,94.2 32.8,92.6 32.5,88.9 11.1,67.5  "/><polygon points="10,57.6 8.5,59.1 8.8,62.9 37.1,91.2 40.9,91.5 42.4,90 42.1,86.2 13.8,57.9  "/></g><rect x="10.1" y="83.8" transform="matrix(0.7071 -0.7071 0.7071 0.7071 -57.5605 34.7529)" width="6.1" height="6.1"/><rect x="21.3" y="46.9" transform="matrix(0.7071 -0.7071 0.7071 0.7071 -20.6255 50.0681)" width="57.6" height="6.1"/><text x="0" y="115" fill="#000000" font-size="5px" font-weight="bold" font-family="'Helvetica Neue', Helvetica, Arial-Unicode, Arial, Sans-serif">Created by Roger Cline</text><text x="0" y="120" fill="#000000" font-size="5px" font-weight="bold" font-family="'Helvetica Neue', Helvetica, Arial-Unicode, Arial, Sans-serif">from the Noun Project</text></svg>